<svg xmlns="http://www.w3.org/2000/svg" viewBox="0 0 199.05 190.08"><defs><style>.cls-1{fill:#0768ea;}.cls-2{fill:#ccff02;}</style></defs><g id="Layer_2" data-name="Layer 2"><g id="Layer_1-2" data-name="Layer 1"><path class="cls-1" d="M89.41,51.34a12,12,0,0,1-9.36-4.11,5.2,5.2,0,0,0-4.16-1.83h-.11a5.18,5.18,0,0,0-4.33,1.91,12.09,12.09,0,0,1-9,4h-.53a11.9,11.9,0,0,1-9-4.15,5.26,5.26,0,0,0-4.13-1.8h-.18a5.41,5.41,0,0,0-4.19,1.83,3.37,3.37,0,0,1-5.05-4.46,12.14,12.14,0,0,1,9.12-4.12h.18A11.93,11.93,0,0,1,58,42.79a5.17,5.17,0,0,0,4.13,1.81h.2a5.36,5.36,0,0,0,4.18-1.83l.15-.15a11.73,11.73,0,0,1,9.12-4,12,12,0,0,1,9.39,4.13,5.38,5.38,0,0,0,4.17,1.81h.08c2.46,0,3.62-.87,3.9-1.33a3.32,3.32,0,0,1,1.26-1.21V20a20,20,0,0,0-20-20h-50a20,20,0,0,0-20,20V70a20,20,0,0,0,20,20h50a20,20,0,0,0,20-20V50.38A13.65,13.65,0,0,1,89.41,51.34Z"/><path class="cls-2" d="M195.53,51.41l-11.1-19.22L173.33,13a25.77,25.77,0,0,0-44.64,0l-11.1,19.23-11.1,19.22a25.78,25.78,0,0,0,22.32,38.67h16.57a11.87,11.87,0,0,1,3.43-5,5.2,5.2,0,0,0,1.81-4.13v-.2a5.39,5.39,0,0,0-1.83-4.18l-.16-.15a11.73,11.73,0,0,1-4-9.12,12,12,0,0,1,4.13-9.39,5.41,5.41,0,0,0,1.82-4.17v-.08c0-2.45-.87-3.62-1.33-3.9a3.37,3.37,0,1,1,3.46-5.78c2.88,1.72,4.61,5.32,4.62,9.64a12.08,12.08,0,0,1-4.12,9.36,5.24,5.24,0,0,0-1.83,4.17v.1a5.16,5.16,0,0,0,1.92,4.33,12.13,12.13,0,0,1,4,9v.52a11.89,11.89,0,0,1-4.08,9h19.93A25.78,25.78,0,0,0,195.53,51.41Z"/><path class="cls-2" d="M191.9,145.08l3.65-6.34a25.77,25.77,0,0,0-22.32-38.66h-44.4a25.77,25.77,0,0,0-22.32,38.66l3.66,6.34-3.66,6.33a25.78,25.78,0,0,0,22.32,38.67H145.4a11.87,11.87,0,0,1,3.43-5,5.2,5.2,0,0,0,1.81-4.13v-.2a5.39,5.39,0,0,0-1.83-4.18l-.16-.15a11.73,11.73,0,0,1-4-9.12,12,12,0,0,1,4.13-9.39,5.41,5.41,0,0,0,1.82-4.17v-.08c0-2.45-.88-3.62-1.34-3.9a3.37,3.37,0,1,1,3.46-5.78c2.88,1.72,4.61,5.32,4.62,9.64a12.08,12.08,0,0,1-4.12,9.36,5.24,5.24,0,0,0-1.83,4.17v.1a5.16,5.16,0,0,0,1.92,4.33,12.13,12.13,0,0,1,4,9v.52a11.89,11.89,0,0,1-4.08,9h19.93a25.78,25.78,0,0,0,22.32-38.67Z"/><path class="cls-2" d="M70.21,100.08H25.81A25.77,25.77,0,0,0,3.49,138.74l7.83,13.56a12,12,0,0,1,6,.46,5.14,5.14,0,0,0,4.48-.5l.09,0,.08-.05a5.36,5.36,0,0,0,2.71-3.67l.05-.21a11.74,11.74,0,0,1,5.92-8,12,12,0,0,1,10.2-1.12,5.39,5.39,0,0,0,4.51-.51l.07,0c2.13-1.23,2.7-2.57,2.71-3.1a3.37,3.37,0,1,1,6.74.1c0,3.35-2.3,6.65-6,8.82a12,12,0,0,1-10.17,1.11,5.25,5.25,0,0,0-4.52.5l-.09,0a5.19,5.19,0,0,0-2.79,3.83,12.16,12.16,0,0,1-5.81,8l-.17.09-.28.17a11.9,11.9,0,0,1-9.75,1l10.4,18a25.77,25.77,0,0,0,44.64,0L81.43,158l11.1-19.22A25.77,25.77,0,0,0,70.21,100.08Z"/></g></g></svg>